<svg width="512" height="512" viewBox="0 0 512 512" fill="none" xmlns="http://www.w3.org/2000/svg">
  <defs>
    <linearGradient id="bg" x1="64" y1="64" x2="448" y2="448" gradientUnits="userSpaceOnUse">
      <stop stop-color="#F8F8FA"/>
      <stop offset="1" stop-color="#EFEFF4"/>
    </linearGradient>
    <linearGradient id="hair" x1="170" y1="140" x2="342" y2="348" gradientUnits="userSpaceOnUse">
      <stop stop-color="#2A2B31"/>
      <stop offset="1" stop-color="#111217"/>
    </linearGradient>
    <linearGradient id="dress" x1="154" y1="272" x2="358" y2="380" gradientUnits="userSpaceOnUse">
      <stop stop-color="#20222A"/>
      <stop offset="1" stop-color="#0F1015"/>
    </linearGradient>
    <linearGradient id="accent" x1="228" y1="250" x2="304" y2="324" gradientUnits="userSpaceOnUse">
      <stop stop-color="#FF9A3D" stop-opacity="0.9"/>
      <stop offset="1" stop-color="#FF7A00" stop-opacity="0.2"/>
    </linearGradient>
  </defs>

  <rect x="24" y="24" width="464" height="464" rx="232" fill="url(#bg)"/>
  <ellipse cx="256" cy="432" rx="130" ry="24" fill="#DBDDE4" fill-opacity="0.7"/>

  <path d="M256 182C288.032 182 314 156.032 314 124C314 91.9675 288.032 66 256 66C223.968 66 198 91.9675 198 124C198 156.032 223.968 182 256 182Z" fill="#E3C6AD"/>

  <path d="M176 156C188 100 222 70 256 70C290 70 324 100 336 156C330 182 318 198 306 204C293 186 276 176 256 176C236 176 219 186 206 204C194 198 182 182 176 156Z" fill="url(#hair)"/>
  <path d="M170 184C182 164 196 154 214 150L224 266L166 234C162 214 164 198 170 184Z" fill="url(#hair)"/>
  <path d="M342 184C330 164 316 154 298 150L288 266L346 234C350 214 348 198 342 184Z" fill="url(#hair)"/>

  <path d="M154 372C158 302 192 256 256 256C320 256 354 302 358 372H154Z" fill="url(#dress)"/>
  <path d="M210 256C219 238 236 228 256 228C276 228 293 238 302 256L290 324H222L210 256Z" fill="#15161C"/>
  <path d="M222 324H290L306 372H206L222 324Z" fill="url(#accent)"/>
</svg>
